<svg xmlns="http://www.w3.org/2000/svg" width="512" height="512" viewBox="0 0 512 512">
  <defs>
    <linearGradient id="sky" gradientUnits="userSpaceOnUse" x1="0" y1="0" x2="0" y2="374">
      <stop offset="0" stop-color="#152549"/><stop offset="0.5" stop-color="#3D5183"/>
      <stop offset="1" stop-color="#F0B778"/>
    </linearGradient>
    <radialGradient id="sun" gradientUnits="userSpaceOnUse" cx="136" cy="374" r="96">
      <stop offset="0" stop-color="#FFF0CE"/><stop offset="1" stop-color="#FFAF4E"/>
    </radialGradient>
    <radialGradient id="glow" gradientUnits="userSpaceOnUse" cx="136" cy="374" r="201.60000000000002">
      <stop offset="0" stop-color="#FFB55A" stop-opacity="0.6"/>
      <stop offset="1" stop-color="#FFB55A" stop-opacity="0"/>
    </radialGradient>
    <linearGradient id="stone" gradientUnits="userSpaceOnUse" x1="206" y1="0" x2="306" y2="0">
      <stop offset="0" stop-color="#F3D6A8"/><stop offset="0.32" stop-color="#DCB57F"/>
      <stop offset="0.7" stop-color="#9C7850"/><stop offset="1" stop-color="#6A4E34"/>
    </linearGradient>
    <linearGradient id="shadowG" gradientUnits="userSpaceOnUse" x1="256" y1="0" x2="506" y2="0">
      <stop offset="0" stop-color="#3A2A1C" stop-opacity="0.55"/>
      <stop offset="1" stop-color="#3A2A1C" stop-opacity="0"/>
    </linearGradient>
    <clipPath id="above"><rect x="0" y="0" width="512" height="374"/></clipPath>
  </defs>
  <rect width="512" height="512" fill="url(#sky)"/>
  <g clip-path="url(#above)">
    <circle cx="136" cy="374" r="201.60000000000002" fill="url(#glow)"/>
    <circle cx="136" cy="374" r="96" fill="url(#sun)"/>
  </g>
  <rect x="0" y="374" width="512" height="138" fill="#C68F55"/>
  <rect x="0" y="374" width="512" height="138" fill="#8B5E3C" opacity="0.45"/>
  <polygon points="178,374 334,374 506,400 296,400" fill="url(#shadowG)"/>
  <rect x="178" y="342" width="156" height="32" rx="4" fill="#8A6845"/>
  <path d="M206,156 A50,50 0 0 1 306,156 L306,346 L206,346 Z" fill="url(#stone)"/>
  <rect x="206" y="183.5" width="100" height="3" fill="#6A4E34" opacity="0.35"/>
  <path d="M216,245.8709677419355L236,278.1290322580645 M236,245.8709677419355L216,278.1290322580645 M241.16129032258064,245.8709677419355L251.16129032258064,278.1290322580645L261.1612903225806,245.8709677419355 M269.5483870967742,245.8709677419355L269.5483870967742,278.1290322580645 M281.16129032258067,245.8709677419355L281.16129032258067,278.1290322580645 M292.77419354838713,245.8709677419355L292.77419354838713,278.1290322580645" fill="none" stroke="#5B4127"
      stroke-width="6.451612903225807" stroke-linecap="butt" stroke-linejoin="miter"/>
</svg>